HIERARCHY
ROOT root
{
	OFFSET 0.000000 0.000000 0.000000
	CHANNELS 6 Xposition Yposition Zposition Zrotation Yrotation Xrotation
	JOINT lhip
	{
		OFFSET 0.058581 -0.082280 -0.017664
		CHANNELS 3 Zrotation Yrotation Xrotation
		JOINT lknee
		{
			OFFSET 0.043451 -0.386469 0.008037
			CHANNELS 3 Zrotation Yrotation Xrotation
			JOINT lankle
			{
				OFFSET -0.014790 -0.426874 -0.037428
				CHANNELS 3 Zrotation Yrotation Xrotation
				JOINT ltoe
				{
					OFFSET 0.041054 -0.060286 0.122042
					CHANNELS 3 Zrotation Yrotation Xrotation
					End Site
					{
						OFFSET 0.000000 0.000000 0.000000
					}
				}
			}
		}
	}
	JOINT rhip
	{
		OFFSET -0.060310 -0.090513 -0.013543
		CHANNELS 3 Zrotation Yrotation Xrotation
		JOINT rknee
		{
			OFFSET -0.043257 -0.383688 -0.004843
			CHANNELS 3 Zrotation Yrotation Xrotation
			JOINT rankle
			{
				OFFSET 0.019056 -0.420046 -0.034562
				CHANNELS 3 Zrotation Yrotation Xrotation
				JOINT rtoe
				{
					OFFSET -0.034840 -0.062106 0.130323
					CHANNELS 3 Zrotation Yrotation Xrotation
					End Site
					{
						OFFSET 0.000000 0.000000 0.000000
					}
				}
			}
		}
	}
	JOINT lowerback
	{
		OFFSET 0.004439 0.124404 -0.038385
		CHANNELS 3 Zrotation Yrotation Xrotation
		JOINT upperback
		{
			OFFSET 0.004488 0.137956 0.026820
			CHANNELS 3 Zrotation Yrotation Xrotation
			JOINT chest
			{
				OFFSET -0.002265 0.056032 0.002855
				CHANNELS 3 Zrotation Yrotation Xrotation
				JOINT lowerneck
				{
					OFFSET -0.013390 0.211636 -0.033468
					CHANNELS 3 Zrotation Yrotation Xrotation
					JOINT upperneck
					{
						OFFSET 0.010113 0.088937 0.050410
						CHANNELS 3 Zrotation Yrotation Xrotation
						End Site
						{
							OFFSET 0.000000 0.000000 0.000000
						}
					}
				}
				JOINT lclavicle
				{
					OFFSET 0.071702 0.114000 -0.018898
					CHANNELS 3 Zrotation Yrotation Xrotation
					JOINT lshoulder
					{
						OFFSET 0.122921 0.045205 -0.019046
						CHANNELS 3 Zrotation Yrotation Xrotation
						JOINT lelbow
						{
							OFFSET 0.255332 -0.015649 -0.022946
							CHANNELS 3 Zrotation Yrotation Xrotation
							JOINT lwrist
							{
								OFFSET 0.265709 0.012698 -0.007375
								CHANNELS 3 Zrotation Yrotation Xrotation
								End Site
								{
									OFFSET 0.000000 0.000000 0.000000
								}
							}
						}
					}
				}
				JOINT rclavicle
				{
					OFFSET -0.082954 0.112472 -0.023707
					CHANNELS 3 Zrotation Yrotation Xrotation
					JOINT rshoulder
					{
						OFFSET -0.113228 0.046853 -0.008472
						CHANNELS 3 Zrotation Yrotation Xrotation
						JOINT relbow
						{
							OFFSET -0.260127 -0.014369 -0.031269
							CHANNELS 3 Zrotation Yrotation Xrotation
							JOINT rwrist
							{
								OFFSET -0.269108 0.006794 -0.006027
								CHANNELS 3 Zrotation Yrotation Xrotation
								End Site
								{
									OFFSET 0.000000 0.000000 0.000000
								}
							}
						}
					}
				}
			}
		}
	}
}
MOTION
Frames: 13
Frame Time: 0.033333
0.815599 0.487925 0.963139 -145.817790 0.464201 90.393125 7.347770 -5.134658 -19.703954 -6.999429 -4.668369 29.140480 -0.459104 10.090253 -23.046759 0.000000 -0.000000 0.000000 -2.561695 1.260760 -0.685341 -0.069270 9.593775 18.504554 1.124831 -5.825187 -28.403838 0.000000 -0.000000 0.000000 -2.094649 7.818810 19.875091 3.061623 -0.881823 2.818552 1.655447 0.113006 5.233428 4.191307 3.119251 -4.118521 0.548594 -7.430410 3.360886 -18.637613 13.668328 7.919064 -54.878436 13.426469 7.147520 4.586350 -43.316250 17.692461 -2.118509 -12.177697 -19.878054 23.274149 -4.555644 2.350838 52.263768 1.148303 10.490852 -20.643355 46.082352 -4.948363 -3.266602 8.805308 -12.263486 
0.793143 0.506915 0.961799 -146.518919 0.363592 90.478439 6.940328 -4.406710 -18.734511 -6.549265 -4.037686 25.959504 -0.268190 10.057836 -22.447163 0.000000 -0.000000 0.000000 -2.889099 1.108707 1.785056 -0.629385 10.081705 17.061679 1.162678 -5.809796 -29.076253 0.000000 -0.000000 0.000000 -3.301350 8.778604 18.422229 2.738424 -0.778637 3.152102 1.811416 0.165360 5.201739 4.725394 3.050872 -3.185762 1.303312 -7.481754 3.287076 -17.340025 14.552032 9.288031 -55.401594 15.428205 6.124122 5.101356 -43.111607 17.251440 -3.286289 -11.902874 -20.620788 22.991451 -4.563642 2.655785 52.902991 1.081199 10.826928 -19.635024 47.650639 -3.983288 -2.382679 8.944705 -13.732242 
0.769511 0.526595 0.955453 -146.911510 0.738280 90.044924 6.494339 -3.303449 -17.361336 -6.679948 -4.629533 27.041520 1.244596 10.122518 -22.750728 0.000000 -0.000000 0.000000 -2.762829 1.215436 3.087180 -0.504398 10.150607 19.293017 1.147617 -6.233531 -30.371030 0.000000 -0.000000 0.000000 -4.062566 8.772060 17.674010 2.537187 -0.556565 3.210953 1.845101 0.162129 5.343464 5.381138 2.952313 -2.844706 1.793142 -7.325938 3.664907 -16.450587 14.859011 10.041961 -55.981361 16.574245 5.187069 5.310414 -42.445233 16.996176 -3.719368 -11.557793 -21.335131 22.621126 -4.159396 2.670137 53.296881 0.717928 11.288735 -17.648305 48.580777 -1.675488 -1.011579 9.062753 -14.464510 
0.746629 0.546582 0.946414 -147.168454 1.306921 89.332114 6.535801 -2.230415 -16.088018 -7.365771 -5.060296 29.840698 2.536663 10.249288 -25.200109 0.000000 -0.000000 0.000000 -2.558547 1.354684 2.239122 0.566937 9.816751 26.105549 1.800711 -6.596932 -31.041658 0.000000 -0.000000 0.000000 -4.519558 8.072972 17.778723 2.488250 -0.356863 3.213720 1.593193 0.191267 5.747250 6.257698 3.130576 -3.800551 1.918315 -7.402272 4.400058 -16.613077 14.550386 9.454944 -56.095955 16.198028 4.655388 5.446387 -40.508800 16.233525 -3.682530 -11.394537 -21.250385 22.731331 -3.645417 2.236001 53.691828 0.669360 11.833063 -16.595250 48.364554 -0.140620 1.072646 9.088796 -13.809765 
0.725868 0.566626 0.939401 -147.247795 1.526212 88.499968 6.762766 -1.546449 -14.096920 -8.435640 -5.038635 31.096903 3.164506 10.418942 -27.247649 0.000000 -0.000000 0.000000 -2.842487 1.560184 -0.285739 2.387678 8.507502 35.407097 2.913161 -6.661677 -29.932472 0.000000 -0.000000 0.000000 -5.073184 7.258858 18.566073 2.431972 -0.443611 3.655667 1.160141 0.190959 5.683626 6.935688 3.490977 -4.597547 2.091349 -7.508996 4.423351 -17.721323 12.941516 8.191750 -55.773487 14.222324 4.654659 6.362530 -37.652861 14.971800 -3.735833 -11.221370 -19.452609 23.277307 -2.857641 2.049858 54.705179 0.583520 12.192001 -17.314394 47.339980 -0.400245 2.680242 8.785556 -12.548338 
0.706915 0.586374 0.936749 -147.046438 1.662216 87.733374 6.937340 -0.543927 -11.503279 -9.404254 -5.633211 31.108304 3.653278 10.324558 -28.771995 0.000000 -0.000000 0.000000 -3.263519 1.523148 -3.259722 4.231465 6.183549 43.358332 3.627910 -5.949770 -28.720094 0.000000 -0.000000 0.000000 -5.245802 6.448040 19.719332 2.171541 -0.701187 3.940210 0.742118 -0.096927 5.174396 7.105873 3.690695 -4.246029 2.515303 -7.217196 3.706146 -19.105735 10.275633 7.221476 -55.509913 11.231926 4.765212 8.801510 -35.629983 13.151284 -3.728948 -10.998190 -16.832578 23.823171 -2.040738 2.143254 55.755180 -0.352331 12.250033 -17.354920 46.776007 0.348639 3.007181 8.724148 -11.380347 
0.688599 0.606247 0.937347 -146.558734 1.902911 87.459074 7.111781 0.499439 -9.002250 -9.836628 -6.633543 30.331736 3.941245 9.850049 -29.719394 0.000000 -0.000000 0.000000 -3.424129 0.512029 -6.562698 5.000063 3.535052 47.779087 3.789108 -5.200945 -28.494297 0.000000 -0.000000 0.000000 -4.970221 5.409858 20.381364 1.795413 -0.883033 3.819281 0.414676 -0.650881 4.936012 6.816868 3.541971 -3.905803 3.074282 -6.653848 3.735609 -20.155946 8.055829 6.298099 -55.764400 7.291482 4.600822 12.541313 -35.637586 9.626094 -2.280830 -10.872626 -15.193240 23.990678 -1.885817 2.295305 56.368174 -1.759063 12.272135 -15.861635 47.029437 3.216683 3.739551 9.182981 -9.987045 
0.671391 0.626604 0.940715 -145.641929 2.225545 87.723005 7.233748 0.914837 -6.782846 -9.687116 -7.982028 28.824414 3.777579 9.302510 -29.835802 0.000000 -0.000000 0.000000 -3.047723 -1.147658 -10.093334 4.332816 0.781957 48.451228 3.736501 -5.525733 -28.449404 0.000000 -0.000000 0.000000 -4.638887 3.966745 20.625220 1.499016 -1.133675 3.178739 0.363652 -1.187238 5.038302 6.106126 3.218228 -3.916977 3.716816 -5.880257 4.765252 -20.479538 6.941884 5.294087 -56.680263 2.726623 4.564498 16.114799 -38.158046 4.103953 2.872377 -10.525563 -16.411686 23.476498 -2.330836 2.344993 56.706602 -3.233668 12.564160 -13.554187 47.318392 6.699727 4.822145 9.456569 -8.777776 
0.655740 0.648366 0.946914 -144.693959 2.650820 88.180102 7.484844 0.737553 -4.443887 -9.241496 -9.724547 26.660282 2.922101 8.934742 -29.121475 0.000000 -0.000000 0.000000 -1.987741 -2.020615 -13.151615 3.425648 -1.618343 45.708384 3.739690 -6.115553 -28.354413 0.000000 -0.000000 0.000000 -4.412866 2.251117 20.777823 1.373930 -1.399771 2.431267 0.573279 -1.525455 5.168001 5.115878 3.211125 -3.984088 4.392630 -5.094118 5.786664 -20.131332 6.519296 4.413015 -57.708212 -1.428515 5.363981 18.901910 -43.785922 -1.511019 9.920365 -9.643393 -19.065569 22.599617 -2.889777 2.344176 56.787923 -4.647990 12.930926 -11.391551 47.254157 9.739238 6.006514 9.050621 -8.143743 
0.641255 0.671844 0.955264 -144.041326 3.158757 88.597397 7.983168 0.498879 -1.696797 -8.651614 -11.604734 23.951861 1.371554 8.516357 -27.699302 0.000000 -0.000000 0.000000 -0.519802 -1.149796 -15.455918 2.969248 -3.706776 40.391212 4.034481 -6.267772 -28.331925 0.000000 -0.000000 0.000000 -4.362813 0.542087 21.003972 1.457270 -1.455243 1.852161 0.940874 -1.801431 5.075579 4.310226 3.865592 -4.021666 4.725824 -4.736736 6.248507 -19.428009 6.242417 3.865361 -58.012705 -4.513043 6.947610 22.252336 -51.848289 -4.962842 13.901084 -9.885190 -19.782885 21.981482 -3.352640 2.398383 56.560165 -5.846575 12.996275 -10.125294 46.703134 11.707328 6.756386 8.647696 -7.989559 
0.627715 0.696946 0.964439 -143.573544 3.649815 89.035244 8.720486 0.272546 0.962139 -8.104908 -13.262773 21.479645 -0.674649 7.860679 -25.696234 0.000000 -0.000000 0.000000 1.046874 0.728367 -17.181991 2.605548 -5.264550 33.748032 4.257661 -6.183763 -28.232959 0.000000 -0.000000 0.000000 -4.463761 -0.902221 21.235060 1.737020 -1.393767 1.474670 1.387641 -2.064775 4.850764 3.748616 4.894232 -4.139466 4.719690 -4.882160 6.279147 -18.431384 6.149600 3.560298 -57.505469 -7.047976 8.549182 27.311713 -60.878550 -8.169633 14.159164 -11.550560 -19.882964 21.641109 -3.929519 2.514707 56.301381 -6.760412 12.868484 -10.068170 46.172871 12.413897 6.967211 8.496387 -8.224505 
0.614895 0.723345 0.972657 -143.039757 3.980828 89.673053 9.492489 -0.289350 2.738695 -7.852036 -14.298458 20.256889 -2.802415 7.153396 -23.513044 0.000000 -0.000000 0.000000 2.472860 2.532547 -18.885456 2.076174 -5.818401 27.808823 4.370734 -5.796892 -27.330878 0.000000 -0.000000 0.000000 -4.635610 -1.958396 21.174919 2.216673 -1.435016 1.337814 1.814401 -2.297524 4.643694 3.229429 5.832068 -4.354282 4.579445 -5.292539 6.110971 -17.175545 6.339921 3.306978 -56.747582 -9.555235 9.746712 34.543535 -69.046966 -14.141257 13.854384 -13.353276 -20.715975 21.288040 -4.739865 2.575696 56.222037 -7.385503 12.837341 -10.706853 45.968844 12.137737 6.621374 8.314112 -8.878091 
0.602034 0.751040 0.978224 -142.358054 3.991678 90.356335 10.037023 -1.005400 3.151711 -8.286830 -14.577521 21.497654 -4.585421 6.532659 -21.559223 0.000000 -0.000000 0.000000 3.565312 3.704847 -20.824290 1.265345 -5.192920 24.809989 4.194162 -5.544436 -25.038724 0.000000 -0.000000 0.000000 -4.865041 -2.637298 20.755141 2.850477 -1.646030 1.453101 2.138011 -2.530711 4.514617 2.667588 6.241577 -4.530019 4.409697 -5.662207 6.044021 -15.971847 6.608854 3.129617 -56.009958 -11.580892 10.601677 44.789806 -75.074375 -24.026228 14.660357 -13.907740 -22.329575 20.868600 -5.621234 2.572550 56.188864 -7.840169 12.987340 -11.336481 46.042809 11.517289 5.994057 7.958515 -9.978804 
